<svg xmlns="http://www.w3.org/2000/svg" viewBox="0 0 32 32" width="32" height="32">
  <rect width="32" height="32" fill="#000000"/>
  
  <!-- Matrix-style digital rain effect -->
  <rect x="2" y="4" width="1" height="8" fill="#00ff00" opacity="0.8"/>
  <rect x="2" y="14" width="1" height="4" fill="#00ff00" opacity="0.6"/>
  <rect x="2" y="20" width="1" height="6" fill="#00ff00" opacity="0.4"/>
  
  <rect x="6" y="2" width="1" height="6" fill="#00ff00" opacity="0.7"/>
  <rect x="6" y="10" width="1" height="8" fill="#00ff00" opacity="0.9"/>
  <rect x="6" y="20" width="1" height="8" fill="#00ff00" opacity="0.5"/>
  
  <rect x="10" y="6" width="1" height="4" fill="#00ff00" opacity="0.6"/>
  <rect x="10" y="12" width="1" height="10" fill="#00ff00" opacity="0.8"/>
  <rect x="10" y="24" width="1" height="6" fill="#00ff00" opacity="0.4"/>
  
  <!-- Central MTG mana symbol inspired design -->
  <circle cx="16" cy="16" r="6" fill="none" stroke="#00ff00" stroke-width="1.5" opacity="0.9"/>
  <polygon points="16,12 18,16 16,20 14,16" fill="#00ff00" opacity="0.7"/>
  
  <!-- More digital rain on the right -->
  <rect x="22" y="2" width="1" height="10" fill="#00ff00" opacity="0.6"/>
  <rect x="22" y="14" width="1" height="6" fill="#00ff00" opacity="0.8"/>
  <rect x="22" y="22" width="1" height="8" fill="#00ff00" opacity="0.4"/>
  
  <rect x="26" y="4" width="1" height="8" fill="#00ff00" opacity="0.7"/>
  <rect x="26" y="14" width="1" height="4" fill="#00ff00" opacity="0.5"/>
  <rect x="26" y="20" width="1" height="8" fill="#00ff00" opacity="0.9"/>
  
  <rect x="30" y="6" width="1" height="6" fill="#00ff00" opacity="0.6"/>
  <rect x="30" y="14" width="1" height="10" fill="#00ff00" opacity="0.8"/>
  <rect x="30" y="26" width="1" height="4" fill="#00ff00" opacity="0.4"/>
</svg>